<svg width="42" height="32" xmlns="http://www.w3.org/2000/svg">

 <g>
  <title>Layer 1</title>
  <path id="svg_1" d="m41.9863,8.11781l-5,2.75l-5,4.75l0,16.3l7,0c1.657,0 3,-1.343 3,-3l0,-20.8z" fill="#4caf50"/>
  <path id="svg_2" d="m-0.0137,8.11781l3.614,1.71l6.386,5.79l0,16.3l-7,0c-1.657,0 -3,-1.343 -3,-3l0,-20.8z" fill="#1e88e5"/>
  <polygon id="svg_3" points="31.986305236816406,3.117811217904091 20.986303329467773,11.367812648415565 9.98630142211914,3.117811217904091 8.98630142211914,8.917811885476112 9.98630142211914,15.617812648415565 20.986303329467773,23.867812648415565 31.986305236816406,15.617812648415565 32.986305236816406,8.917811885476112 " fill="#e53935"/>
  <path id="svg_4" d="m-0.0137,4.21581l0,3.902l10,7.5l0,-12.5l-3.124,-2.341c-0.744,-0.558 -1.648,-0.859 -2.578,-0.859l0,0c-2.374,0 -4.298,1.924 -4.298,4.298z" fill="#c62828"/>
  <path id="svg_5" d="m41.9863,4.21581l0,3.902l-10,7.5l0,-12.5l3.124,-2.341c0.744,-0.558 1.648,-0.859 2.578,-0.859l0,0c2.374,0 4.298,1.924 4.298,4.298z" fill="#fbc02d"/>
 </g>
</svg>