<svg width="459" height="512" xmlns="http://www.w3.org/2000/svg">
 <g>
  <title>Layer 1</title>
  <path d="m0,0l44.26563,461.5l186.48046,50.5l183.84375,-50.5l44.26563,-461.5l-458.85547,0zm0,0" fill="#ffffff" id="svg_1"/>
  <path d="m230.74609,0l0,512l183.84375,-50.5l44.26563,-461.5l-228.10938,0zm0,0" fill="#999999" id="svg_2"/>
  <path d="m367.17188,159.37891l-195.85938,-0.00391l3.27734,35.82813l191.65235,0l-15.48828,200.1914l-120.17188,34.95313l-128.98437,-40.11719l0,-81.18359l80.125,0l0,24.17968l48.875,15.10157l46.30859,-15.11329l3.37109,-59.9414l-177.4375,0l-20.03125,-190.96485l284.36329,0l0,77.07032zm0,0" fill="#e5e5e5" id="svg_3"/>
  <g fill="#deecf1" id="svg_4">
   <path fill="#b2b2b2" d="m230.74609,82.30859l136.42579,0l0,77.07032l-136.42579,0l0,-77.07032zm0,0" id="svg_5"/>
   <path fill="#b2b2b2" d="m280.27734,273.27344l-3.37109,59.9414l-46.16016,15.06641l0,82.01953l120.00782,-34.90625l15.48828,-200.1914l-135.4961,0l0,78.07031l49.53125,0zm0,0" id="svg_6"/>
  </g>
 </g>

</svg>