<svg width="512" height="407.864" xmlns="http://www.w3.org/2000/svg">

 <g>
  <title>Layer 1</title>
  <path id="svg_1" fill-rule="evenodd" fill="#ffffff" d="m106.344,0c-29.214,0 -50.831,25.57 -49.863,53.3c0.929,26.641 -0.278,61.145 -8.964,89.283c-8.717,28.217 -23.449,46.098 -47.517,48.393l0,25.912c24.068,2.3 38.8,20.172 47.516,48.393c8.687,28.138 9.893,62.642 8.964,89.283c-0.968,27.726 20.649,53.3 49.868,53.3l299.347,0c29.214,0 50.827,-25.57 49.859,-53.3c-0.929,-26.641 0.278,-61.145 8.964,-89.283c8.717,-28.221 23.413,-46.1 47.482,-48.393l0,-25.912c-24.068,-2.3 -38.764,-20.172 -47.482,-48.393c-8.687,-28.134 -9.893,-62.642 -8.964,-89.283c0.968,-27.726 -20.645,-53.3 -49.859,-53.3l-299.355,0l0.004,0zm240.775,251.067c0,38.183 -28.481,61.34 -75.746,61.34l-80.458,0a8.678,8.678 0 0 1 -8.678,-8.678l0,-199.593a8.678,8.678 0 0 1 8.678,-8.678l80,0c39.411,0 65.276,21.348 65.276,54.124c0,23.005 -17.4,43.6 -39.567,47.208l0,1.2c30.176,3.31 50.495,24.21 50.495,53.077zm-84.519,-128.1l-45.876,0l0,64.8l38.639,0c29.87,0 46.34,-12.028 46.34,-33.527c-0.003,-20.148 -14.163,-31.273 -39.103,-31.273zm-45.876,90.511l0,71.411l47.564,0c31.1,0 47.573,-12.479 47.573,-35.931s-16.935,-35.484 -49.573,-35.484l-45.564,0l0,0.004z"/>
 </g>
</svg>