<svg width="509" height="410" xmlns="http://www.w3.org/2000/svg" xml:space="preserve" version="1.1">
 <metadata id="metadata8">image/svg+xml</metadata>
 <defs id="defs6">
  <clipPath id="clipPath18" clipPathUnits="userSpaceOnUse">
   <path id="path16" d="m-116.20182,1874.55005l841.89,0l0,-1190.55l-841.89,0l0,1190.55z"/>
  </clipPath>
 </defs>
 <g>
  <title>Layer 1</title>
  <g transform="matrix(1.33333 0 0 -1.33333 0 1587.4)" id="g10">
   <g id="g12">
    <g clip-path="url(#clipPath18)" id="g14">
     <g id="g20">
      <path id="path22" d="m217.79818,1172.54986l0,-109l-42,0l0,109l-15.5,0c7.6,-17.8 9.7,-40.9 6.5,-69.5c-6.6,-48.9 -24.7,-80.4 -54.5,-94.5c-9.4,-39.2 -14.2,-81 -14.5,-125.5l5,0c2.8,35 7.2,51.3 13,49c6,1.5 7,-14.9 3,-49l4,0c2.8,35 7.2,51.3 13,49c6,1.5 7,-14.9 3,-49l5,0c2.8,35 7.2,51.3 13,49c6,1.5 7,-14.9 3,-49l16.5,0l0,105.5l41.5,0l0,-105.5l4,0c2.8,35 7.2,51.3 13,49c6,1.5 7,-14.9 3,-49l22,0l0,289.5l-42,0z" fill-rule="nonzero" fill="#ffffff"/>
     </g>
     <g id="g24">
      <path id="path26" d="m95.29818,1089.54986c0,-6.3 -2.2,-11.8 -6.7,-16.2c-4.5,-4.5 -10,-6.8 -16.3,-6.8l-14,0l0,64l14,0c6.3,0 11.8,-2.2 16.3,-6.7c4.5,-4.5 6.7,-10 6.7,-16.3l0,-18zm65,83c-3.6,16.5 -16.2,21.5 -38,15c-40.3,-9.4 -74.6,-14.6 -103,-16c-17.6,-54.2 -23,-114.1 -16,-179.5c4.3,-36 12,-71.4 23,-106l22.5,0c-4.5,30.5 -6.5,61 -6,91.5c0.1,4 3.3,7.1 9.5,9c22.5,5.4 42.5,12.8 60,22c13.3,62 20.4,116.7 21.5,164l26.5,0z" fill-rule="nonzero" fill="#ffffff"/>
     </g>
     <g id="g28">
      <path id="path30" d="m340.19809,1074.34966c0,-6.4 -2.2,-11.9 -6.7,-16.3c-4.4,-4.5 -9.9,-6.7 -16.3,-6.7l-14,0l0,64l14,0c6.4,0 11.9,-2.3 16.3,-6.7c4.5,-4.5 6.7,-10 6.7,-16.3l0,-18zm38.5,44.7c-6.5,35.1 -25.3,53.4 -56.4,54.5l-53.5,0l0,-290.5l5.5,0c2.8,35 7.1,51.3 13,49c6,1.5 7,-14.9 3,-49l4,0c2.8,35 7.1,51.3 13,49c6,1.5 7,-14.9 3,-49l28.9,0c0.6,13.7 -0.7,27.4 -3.9,41l-9,54.5c11.1,4.7 20.3,11.3 27.4,20c24.2,27.4 32.6,67.7 25,120.5" fill-rule="nonzero" fill="#ffffff"/>
     </g>
    </g>
   </g>
  </g>
 </g>
</svg>