<svg width="264" height="264" xmlns="http://www.w3.org/2000/svg" preserveAspectRatio="xMidYMid" version="1.1">

 <g>
  <title>Layer 1</title>
  <g id="svg_1">
   <path id="svg_2" fill="#ffffff" d="m255.85564,59.61972c0.09493,0.35134 0.14436,0.71359 0.14436,1.07753l0,56.56809c0,1.47787 -0.79059,2.84281 -2.07258,3.57804l-47.47863,27.33541l0,54.18101c0,1.47452 -0.78367,2.83562 -2.06227,3.57804l-99.10759,57.05272c-0.22685,0.1289 -0.47432,0.21139 -0.72179,0.29903c-0.09281,0.03094 -0.18045,0.08765 -0.27841,0.11343c-0.6928,0.18244 -1.42103,0.18244 -2.11383,0c-0.11342,-0.03094 -0.21654,-0.0928 -0.32481,-0.13405c-0.22685,-0.08249 -0.46401,-0.15467 -0.68055,-0.27841l-99.08696,-57.05272c-1.28121,-0.73602 -2.07258,-2.10047 -2.07258,-3.57804l0,-169.70428c0,-0.3712 0.05156,-0.7321 0.14436,-1.08269c0.03093,-0.11858 0.10311,-0.22685 0.14436,-0.34543c0.07733,-0.21654 0.14951,-0.43823 0.26294,-0.6393c0.07733,-0.13405 0.19076,-0.24232 0.28356,-0.36605c0.11858,-0.16499 0.22685,-0.33512 0.36605,-0.47948c0.11858,-0.11858 0.27325,-0.20623 0.4073,-0.30934c0.14952,-0.12374 0.28356,-0.25779 0.4537,-0.35575l0.00516,0l49.54606,-28.52636c1.2767,-0.73466 2.84783,-0.73466 4.12454,0l49.54606,28.52636l0.01031,0c0.16498,0.10312 0.30418,0.23201 0.4537,0.35059c0.13404,0.10311 0.28356,0.19592 0.40214,0.30934c0.14436,0.14952 0.24747,0.31965 0.37121,0.48464c0.08764,0.12373 0.20623,0.232 0.2784,0.36605c0.11859,0.20623 0.18561,0.42276 0.2681,0.6393c0.04125,0.11858 0.11343,0.22685 0.14436,0.35059c0.09492,0.35134 0.14346,0.7136 0.14436,1.07753l0,105.99557l41.28666,-23.77282l0,-54.18617c0,-0.3609 0.05156,-0.72695 0.14436,-1.07238c0.03609,-0.12374 0.10311,-0.23201 0.14436,-0.35059c0.08249,-0.21654 0.15467,-0.43823 0.26809,-0.6393c0.07734,-0.13405 0.19077,-0.24232 0.27841,-0.36606c0.12374,-0.16498 0.22685,-0.33512 0.37121,-0.47947c0.11858,-0.11858 0.2681,-0.20623 0.40214,-0.30934c0.15467,-0.12374 0.28872,-0.25779 0.4537,-0.35575l0.00516,0l49.55121,-28.52636c1.27643,-0.73572 2.84812,-0.73572 4.12455,0l49.54605,28.52636c0.1753,0.10312 0.30934,0.23201 0.46401,0.35059c0.1289,0.10311 0.27841,0.19592 0.39699,0.30934c0.14436,0.14951 0.24747,0.31965 0.37121,0.48463c0.0928,0.12374 0.20623,0.23201 0.27841,0.36606c0.11858,0.20107 0.1856,0.42276 0.26809,0.6393c0.0464,0.11858 0.11343,0.22685 0.14436,0.35059zm-8.11504,55.25855l0,-47.0404l-17.33854,9.98139l-23.95327,13.79143l0,47.0404l41.29697,-23.77282l-0.00516,0zm-49.54605,85.09445l0,-47.07133l-23.56145,13.45631l-67.28159,38.39949l0,47.51472l90.84304,-52.29919zm-189.93515,-160.17658l0,160.17658l90.83272,52.29403l0,-47.50441l-47.45286,-26.85592l-0.01546,-0.01031l-0.02063,-0.01031c-0.15982,-0.0928 -0.29387,-0.22685 -0.44338,-0.34028c-0.1289,-0.10311 -0.27841,-0.1856 -0.39184,-0.29903l-0.01031,-0.01546c-0.13404,-0.12889 -0.22685,-0.28872 -0.34027,-0.43308c-0.10312,-0.1392 -0.22685,-0.25778 -0.30934,-0.40214l-0.00516,-0.01547c-0.0928,-0.15467 -0.14951,-0.34027 -0.21654,-0.51557c-0.06702,-0.15467 -0.15467,-0.29903 -0.19591,-0.46401l0,-0.00515c-0.05156,-0.19592 -0.06187,-0.40215 -0.08249,-0.60322c-0.02063,-0.15467 -0.06187,-0.30934 -0.06187,-0.46401l0,-0.01031l0,-110.7491l-23.94812,-13.7966l-17.33854,-9.97108l0,-0.00515zm45.42151,-30.90313l-41.28151,23.76251l41.2712,23.76252l41.27635,-23.76767l-41.27635,-23.75736l0.01031,0zm21.46824,148.2979l23.94812,-13.78628l0,-103.60849l-12.33854,8.98139c-7.98443,4.26381 -20.96885,11.52763 -28.95328,15.79144l0,102.60849l17.3437,-9.98655zm127.17509,-120.25617l-41.27635,23.76251l41.27635,23.76252l41.2712,-23.76767l-41.2712,-23.75736zm-4.12969,54.67595l-23.95328,-13.79143l-17.33854,-9.98139l0,47.0404l23.94812,13.78628l17.3437,9.98654l0,-47.0404zm-94.97789,106.00589l60.54312,-34.56366l30.26382,-17.27152l-41.24541,-23.74705l-47.48895,27.34055l-43.28191,24.91739l41.20933,23.32429z"/>
  </g>
 </g>
</svg>