<svg width="39" height="39" xmlns="http://www.w3.org/2000/svg">

 <g>
  <title>Layer 1</title>
  <path id="svg_1" d="m37.71084,17.61084l-16.3,-16.3c-0.5,-0.5 -1.2,-0.8 -1.9,-0.8c0,0 0,0 0,0c-0.7,0 -1.4,0.3 -1.9,0.8l-3.5,3.5l4.1,4.1c0.4,-0.2 0.8,-0.3 1.3,-0.3c1.7,0 3,1.3 3,3c0,0.5 -0.1,0.9 -0.3,1.3l4,4c0.4,-0.2 0.8,-0.3 1.3,-0.3c1.7,0 3,1.3 3,3s-1.3,3 -3,3c-1.7,0 -3,-1.3 -3,-3c0,-0.5 0.1,-0.9 0.3,-1.3l-4,-4c-0.1,0 -0.2,0.1 -0.3,0.1l0,10.4c1.2,0.4 2,1.5 2,2.8c0,1.7 -1.3,3 -3,3s-3,-1.3 -3,-3c0,-1.3 0.8,-2.4 2,-2.8l0,-10.5c-1.2,-0.4 -2,-1.5 -2,-2.8c0,-0.5 0.1,-0.9 0.3,-1.3l-4.1,-4.1l-11.4,11.5c-0.5,0.5 -0.8,1.2 -0.8,1.9c0,0.7 0.3,1.4 0.8,1.9l16.3,16.3c0,0 0,0 0,0c0.5,0.5 1.2,0.8 1.9,0.8s1.4,-0.3 1.9,-0.8l16.3,-16.3c0.5,-0.5 0.8,-1.2 0.8,-1.9c0,-0.7 -0.3,-1.4 -0.8,-1.9z" fill="#F4511E"/>
 </g>
</svg>